<?xml version="1.0" encoding="iso-8859-1"?>
<!-- Generator: Adobe Illustrator 19.0.0, SVG Export Plug-In . SVG Version: 6.00 Build 0)  -->
<svg version="1.1" id="Layer_1" xmlns="http://www.w3.org/2000/svg" xmlns:xlink="http://www.w3.org/1999/xlink" x="0px" y="0px"
	 viewBox="0 0 512 512" style="enable-background:new 0 0 0 0;" xml:space="preserve">
<g>
	<g>
		<path d="M438.714,112.439h-36.673C414.775,57.259,373.359,0,312.22,0c-61.124,0-102.558,57.243-89.821,112.439h-92.893
			c-9.425,0-17.067,7.641-17.067,17.067v92.887C57.342,209.702,0,251.001,0,312.22c0,61.274,57.369,102.5,112.44,89.828v92.886
			c0,9.425,7.641,17.067,17.067,17.067h117.781c13.127,0,21.337-14.245,14.781-25.599c-22.125-38.328,5.477-86.84,50.153-86.84
			c44.618,0,72.308,48.459,50.152,86.84c-6.565,11.371,1.67,25.599,14.78,25.599h117.781c9.425,0,17.067-7.641,17.067-17.067
			V185.725C512,145.316,479.123,112.439,438.714,112.439z M402.046,477.867c12.675-55.053-28.551-112.439-89.826-112.439
			c-61.166,0-102.526,57.287-89.828,112.439h-75.819V377.153c0-13.129-14.243-21.334-25.599-14.781
			c-38.327,22.124-86.841-5.472-86.841-50.152c0-44.648,48.491-72.292,86.841-50.153c11.373,6.56,25.599-1.669,25.599-14.781
			V146.572h100.741c13.133,0,21.344-14.258,14.771-25.616c-22.189-38.341,5.509-86.823,50.135-86.823
			c44.668,0,72.301,48.518,50.134,86.824c-6.582,11.374,1.655,25.616,14.771,25.616h61.588c21.589,0,39.153,17.565,39.153,39.153
			v292.14H402.046z"/>
	</g>
</g>

</svg>
